# xmcd
#
# Track frame offsets: 
#        150
#        30374
#        52942
#        95943
#        110921
#        139665
#        191699
#        234299
#
# Disc length: 3455 seconds
#
# Revision: 0
# Processed by: cddbd v1.5.2PL0 Copyright (c) Steve Scherf et al.
# Submitted via: ExactAudioCopy v0.99pb4
#
DISCID=680d7d08
DTITLE=Van Morrison - The Unreleased Live Album 2003 [Bootleg] [CD2
DTITLE=)
DYEAR=2004
DGENRE=R&B
TTITLE0=Listen To The Lion (Malvern)
TTITLE1=It Once Was My Life (Hamburg)
TTITLE2=Early In The Morning - Goldfish Bowl (Hamburg)
TTITLE3=Stop Drinking (Malvern)
TTITLE4=Philosophers Stone (Hamburg)
TTITLE5=The Healing Has Begun (Hamburg)
TTITLE6=It's All In The Game (Malvern)
TTITLE7=Gloria (Malvern)
EXTD=
EXTT0=
EXTT1=
EXTT2=
EXTT3=
EXTT4=
EXTT5=
EXTT6=
EXTT7=
PLAYORDER=
